<svg width="55" height="48" viewBox="0 0 55 48" fill="none"
  xmlns="http://www.w3.org/2000/svg">
  <path fill-rule="evenodd" clip-rule="evenodd" d="M50.5557 4.43278C49.911 3.78979 49.0367 3.42857 48.125 3.42857H6.875C5.96332 3.42857 5.08898 3.78979 4.44432 4.43278C3.79966 5.07576 3.4375 5.94783 3.4375 6.85714V15.1602H51.5625V6.85714C51.5625 5.94783 51.2003 5.07576 50.5557 4.43278ZM55 15.1602V18.5887V41.1429C55 42.0434 54.8222 42.935 54.4767 43.767C54.1312 44.5989 53.6248 45.3548 52.9864 45.9916C52.348 46.6283 51.5901 47.1334 50.756 47.478C49.9218 47.8226 49.0278 48 48.125 48H6.875C5.05164 48 3.30295 47.2775 2.01364 45.9916C0.724328 44.7056 0 42.9615 0 41.1429V18.5887V15.1602V6.85714C0 5.03852 0.724328 3.29437 2.01364 2.00841C3.30295 0.722447 5.05164 0 6.875 0H48.125C49.0278 0 49.9218 0.177365 50.756 0.521969C51.5901 0.866573 52.348 1.37167 52.9864 2.00841C53.6248 2.64516 54.1312 3.40108 54.4767 4.23303C54.8222 5.06497 55 5.95665 55 6.85714V15.1602ZM3.4375 18.5887V41.1429C3.4375 42.0522 3.79966 42.9242 4.44432 43.5672C5.08898 44.2102 5.96332 44.5714 6.875 44.5714H48.125C49.0367 44.5714 49.911 44.2102 50.5557 43.5672C51.2003 42.9242 51.5625 42.0522 51.5625 41.1429V18.5887H3.4375ZM7.5797 9.62846C7.57964 9.96618 7.64629 10.3006 7.77583 10.6126C7.90537 10.9247 8.09527 11.2082 8.33467 11.447C8.57408 11.6858 8.85831 11.8753 9.17112 12.0045C9.48394 12.1338 9.81922 12.2003 10.1578 12.2003C10.4964 12.2003 10.8317 12.1338 11.1445 12.0045C11.4573 11.8753 11.7416 11.6858 11.981 11.447C12.2204 11.2082 12.4103 10.9247 12.5398 10.6126C12.6694 10.3006 12.736 9.96618 12.7359 9.62846C12.736 9.29074 12.6694 8.95632 12.5398 8.6443C12.4103 8.33227 12.2204 8.04875 11.981 7.80993C11.7416 7.57111 11.4573 7.38167 11.1445 7.25242C10.8317 7.12317 10.4964 7.05664 10.1578 7.05664C9.81922 7.05664 9.48394 7.12317 9.17112 7.25242C8.85831 7.38167 8.57408 7.57111 8.33467 7.80993C8.09527 8.04875 7.90537 8.33227 7.77583 8.6443C7.64629 8.95632 7.57964 9.29074 7.5797 9.62846ZM16.3385 11.4468C15.855 10.9646 15.5833 10.3105 15.5833 9.62856C15.5833 8.94657 15.855 8.29252 16.3385 7.81028C16.822 7.32805 17.4777 7.05713 18.1615 7.05713C18.8452 7.05713 19.501 7.32805 19.9845 7.81028C20.468 8.29252 20.7396 8.94657 20.7396 9.62856C20.7396 10.3105 20.468 10.9646 19.9845 11.4468C19.501 11.9291 18.8452 12.2 18.1615 12.2C17.4777 12.2 16.822 11.9291 16.3385 11.4468ZM23.587 9.62856C23.587 10.3105 23.8586 10.9646 24.3421 11.4468C24.8256 11.9291 25.4813 12.2 26.1651 12.2C26.8489 12.2 27.5046 11.9291 27.9881 11.4468C28.4716 10.9646 28.7432 10.3105 28.7432 9.62856C28.7432 8.94657 28.4716 8.29252 27.9881 7.81028C27.5046 7.32805 26.8489 7.05713 26.1651 7.05713C25.4813 7.05713 24.8256 7.32805 24.3421 7.81028C23.8586 8.29252 23.587 8.94657 23.587 9.62856ZM39.0328 28.137L46.4063 31.1713C46.7 31.2876 46.9512 31.4904 47.1262 31.7529C47.3013 32.0153 47.3919 32.3247 47.3859 32.6399C47.386 32.9662 47.2941 33.2859 47.1209 33.5627C46.9477 33.8395 46.7001 34.0622 46.4063 34.2056L39.1302 37.5199C38.9359 37.673 38.6886 37.7429 38.4427 37.7142C38.1168 37.7152 37.7971 37.6254 37.5197 37.4547C37.2423 37.284 37.0182 37.0394 36.8729 36.7485C36.692 36.333 36.6832 35.8631 36.8485 35.4412C37.0138 35.0194 37.3398 34.6799 37.7552 34.497L41.3875 32.8342L37.7552 31.3656C37.326 31.1966 36.9816 30.8645 36.7979 30.4423C36.6141 30.02 36.6061 29.5423 36.7755 29.1142C36.9449 28.686 37.2779 28.3426 37.7013 28.1593C38.1246 27.9761 38.6036 27.968 39.0328 28.137ZM28.4106 24.4153C28.8148 24.2142 29.2821 24.18 29.7115 24.3199C30.1398 24.4646 30.4937 24.772 30.6964 25.1752C30.8991 25.5785 30.9343 26.0452 30.7943 26.4742L27.0646 37.8227C26.9265 38.156 26.6967 38.4434 26.4016 38.6517C26.1066 38.8601 25.7584 38.9808 25.3974 38.9999C25.2277 39.0073 25.0587 38.974 24.9047 38.9027C24.4774 38.7568 24.1248 38.449 23.9233 38.0459C23.7217 37.6427 23.6873 37.1767 23.8276 36.7485L27.5516 25.3942C27.6978 24.968 28.0065 24.6163 28.4106 24.4153ZM17.2977 28.2166C17.7155 28.3975 18.0502 28.7279 18.2359 29.1427C18.6312 29.9942 18.1385 30.977 17.1589 31.4456L13.5266 32.9142L17.1589 34.577C17.5743 34.7599 17.9003 35.0994 18.0656 35.5212C18.2309 35.9431 18.2221 36.413 18.0411 36.8284C17.8974 37.1216 17.6741 37.3685 17.3966 37.5413C17.119 37.714 16.7985 37.8056 16.4714 37.8056C16.2315 37.7869 15.9979 37.7208 15.7839 37.6113L8.525 34.2856C8.22628 34.1504 7.9726 33.9327 7.79393 33.6583C7.61525 33.3839 7.51904 33.0642 7.51666 32.737C7.53589 32.4029 7.64642 32.0803 7.83627 31.8043C8.02613 31.5284 8.28808 31.3094 8.59375 31.1713L15.9786 28.1656C16.4093 28.0176 16.8799 28.0358 17.2977 28.2166Z" fill="url(#paint0_linear_53_24)"/>
  <defs>
    <linearGradient id="paint0_linear_53_24" x1="0" y1="0" x2="55" y2="48" gradientUnits="userSpaceOnUse">
      <stop stop-color="#6688FF"/>
      <stop offset="1" stop-color="#6688FF" stop-opacity="0.45"/>
    </linearGradient>
  </defs>
</svg>
