<svg width="346" height="407" viewBox="0 0 346 407" fill="none"
  xmlns="http://www.w3.org/2000/svg">
  <path d="M45.9167 406.5C33.4959 406.5 22.8591 402.074 14.0065 393.221C5.15379 384.368 0.734983 373.739 0.750038 361.333V45.1667C0.750038 32.7459 5.17637 22.1091 14.029 13.2565C22.8817 4.40379 33.5109 -0.0150172 45.9167 3.83418e-05H362.083C374.504 3.83418e-05 385.141 4.42637 393.994 13.279C402.846 22.1317 407.265 32.7609 407.25 45.1667V361.333C407.25 373.754 402.824 384.391 393.971 393.244C385.118 402.096 374.489 406.515 362.083 406.5H45.9167ZM45.9167 45.1667V361.333H362.083V45.1667H316.917V203.25L260.458 169.375L204 203.25V45.1667H45.9167Z" fill="url(#paint0_linear_1_41)"/>
  <defs>
    <linearGradient id="paint0_linear_1_41" x1="204" y1="0" x2="204" y2="406.5" gradientUnits="userSpaceOnUse">
      <stop stop-color="#6688FF"/>
      <stop offset="1" stop-color="#6688FF" stop-opacity="0"/>
    </linearGradient>
  </defs>
</svg>
