<svg width="71" height="26" viewBox="0 0 71 26" fill="none"
  xmlns="http://www.w3.org/2000/svg">
  <path d="M1.3 24.4V10.08H3.58L3.86 11.5C4.18 11.06 4.6 10.6733 5.12 10.34C5.65333 10.0067 6.34 9.84 7.18 9.84C8.11333 9.84 8.94667 10.0667 9.68 10.52C10.4133 10.9733 10.9933 11.5933 11.42 12.38C11.8467 13.1667 12.06 14.06 12.06 15.06C12.06 16.06 11.8467 16.9533 11.42 17.74C10.9933 18.5133 10.4133 19.1267 9.68 19.58C8.94667 20.02 8.11333 20.24 7.18 20.24C6.43333 20.24 5.78 20.1 5.22 19.82C4.66 19.54 4.20667 19.1467 3.86 18.64V24.4H1.3ZM6.64 18C7.45333 18 8.12667 17.7267 8.66 17.18C9.19333 16.6333 9.46 15.9267 9.46 15.06C9.46 14.1933 9.19333 13.48 8.66 12.92C8.12667 12.36 7.45333 12.08 6.64 12.08C5.81333 12.08 5.13333 12.36 4.6 12.92C4.08 13.4667 3.82 14.1733 3.82 15.04C3.82 15.9067 4.08 16.62 4.6 17.18C5.13333 17.7267 5.81333 18 6.64 18ZM18.9069 20.24C17.9735 20.24 17.1402 20.0133 16.4069 19.56C15.6735 19.1067 15.0935 18.4867 14.6669 17.7C14.2402 16.9133 14.0269 16.02 14.0269 15.02C14.0269 14.02 14.2402 13.1333 14.6669 12.36C15.0935 11.5733 15.6735 10.96 16.4069 10.52C17.1402 10.0667 17.9735 9.84 18.9069 9.84C19.6535 9.84 20.3069 9.98 20.8669 10.26C21.4269 10.54 21.8802 10.9333 22.2269 11.44V5.6H24.7869V20H22.5069L22.2269 18.58C21.9069 19.02 21.4802 19.4067 20.9469 19.74C20.4269 20.0733 19.7469 20.24 18.9069 20.24ZM19.4469 18C20.2735 18 20.9469 17.7267 21.4669 17.18C22.0002 16.62 22.2669 15.9067 22.2669 15.04C22.2669 14.1733 22.0002 13.4667 21.4669 12.92C20.9469 12.36 20.2735 12.08 19.4469 12.08C18.6335 12.08 17.9602 12.3533 17.4269 12.9C16.8935 13.4467 16.6269 14.1533 16.6269 15.02C16.6269 15.8867 16.8935 16.6 17.4269 17.16C17.9602 17.72 18.6335 18 19.4469 18ZM27.3938 20V10.08H29.6738L29.9138 11.94C30.2738 11.3 30.7604 10.7933 31.3737 10.42C32.0004 10.0333 32.7338 9.84 33.5738 9.84V12.54H32.8538C32.2938 12.54 31.7938 12.6267 31.3538 12.8C30.9138 12.9733 30.5671 13.2733 30.3138 13.7C30.0738 14.1267 29.9538 14.72 29.9538 15.48V20H27.3938Z" fill="white"/>
  <g clip-path="url(#clip0_1_60)">
    <path d="M59.7078 7.02808C59.8806 6.30416 60.5917 5.86138 61.295 6.03932C61.9984 6.21726 62.4285 6.94914 62.2556 7.67311L59.0451 20.9719C58.8722 21.6959 58.1612 22.1386 57.4578 21.9607C56.7544 21.7827 56.3243 21.0509 56.4972 20.3269L59.7078 7.02808ZM54.1554 17.8523C54.6999 18.3429 54.7552 19.1953 54.2786 19.7557C53.802 20.3161 52.9738 20.373 52.4294 19.8825L47.4474 15.3893C46.9029 14.8988 46.8476 14.0464 47.3243 13.486C47.3652 13.4379 47.4086 13.3937 47.454 13.3533L52.4294 8.86615C52.9738 8.37556 53.802 8.43244 54.2786 8.99285C54.7552 9.5533 54.6999 10.4057 54.1554 10.8962L50.299 14.3743L54.1554 17.8523ZM65.5706 19.8825C65.0261 20.373 64.198 20.3161 63.7214 19.7557C63.2448 19.1953 63.3001 18.3429 63.8446 17.8523L67.701 14.3743L63.8446 10.8962C63.3001 10.4057 63.2448 9.5533 63.7214 8.99285C64.198 8.43244 65.0261 8.37556 65.5706 8.86615L70.546 13.3533C70.5921 13.3944 70.6355 13.4387 70.6757 13.486C71.1523 14.0464 71.0971 14.8988 70.5526 15.3893L65.5706 19.8825Z" fill="#6688FF"/>
  </g>
  <defs>
    <clipPath id="clip0_1_60">
      <rect width="24" height="16" fill="white" transform="translate(47 6)"/>
    </clipPath>
  </defs>
</svg>
