<svg width="48" height="48" viewBox="0 0 48 48" fill="none"
  xmlns="http://www.w3.org/2000/svg">
  <mask id="mask0_53_97" style="mask-type:alpha" maskUnits="userSpaceOnUse" x="0" y="0" width="48" height="48">
    <rect width="48" height="48" fill="url(#paint0_linear_53_97)"/>
  </mask>
  <g mask="url(#mask0_53_97)">
    <path d="M2.90239 45.2369L18.2649 29.8744M37.6105 23.0429L33.0119 36.8387C32.9385 37.0599 32.8128 37.26 32.6456 37.4222C32.4783 37.5845 32.2744 37.7039 32.0511 37.7705L3.86074 46.1494C3.60677 46.2248 3.33697 46.2292 3.08072 46.1619C2.82446 46.0947 2.59155 45.9584 2.40735 45.768C2.22315 45.5776 2.09471 45.3403 2.036 45.0819C1.9773 44.8236 1.99058 44.5541 2.0744 44.3027L11.2282 16.8462C11.2938 16.6491 11.401 16.4683 11.5427 16.3163C11.6843 16.1643 11.8569 16.0445 12.0489 15.9651L25.053 10.6109C25.3174 10.5017 25.6082 10.4732 25.8887 10.5291C26.1692 10.5849 26.4269 10.7226 26.6293 10.9247L37.2605 21.5583C37.4511 21.7487 37.5849 21.9885 37.6467 22.2508C37.7086 22.513 37.696 22.7873 37.6105 23.0429Z" stroke="#6688FF" stroke-width="3" stroke-linecap="round" stroke-linejoin="round"/>
    <path d="M37.8955 22.1931L44.7222 15.3639C45.6273 14.4586 46.1358 13.2308 46.1358 11.9506C46.1358 10.6704 45.6273 9.44259 44.7222 8.53722L39.6046 3.41476C39.1563 2.96624 38.624 2.61044 38.0381 2.36769C37.4522 2.12494 36.8242 2 36.1901 2C35.5559 2 34.9279 2.12494 34.342 2.36769C33.7561 2.61044 33.2238 2.96624 32.7755 3.41476L25.9488 10.2439M23.3851 24.7519C23.0488 24.4157 22.6495 24.149 22.2101 23.9672C21.7707 23.7853 21.2998 23.6917 20.8243 23.6918C20.3487 23.6919 19.8778 23.7857 19.4385 23.9678C18.9992 24.1499 18.6001 24.4167 18.2639 24.7531C17.9277 25.0894 17.661 25.4887 17.4792 25.9281C17.2973 26.3675 17.2037 26.8384 17.2038 27.314C17.204 27.7895 17.2977 28.2604 17.4798 28.6997C17.6619 29.139 17.9287 29.5381 18.2651 29.8743C18.9444 30.5533 19.8655 30.9346 20.826 30.9344C21.7864 30.9341 22.7074 30.5524 23.3863 29.8731C24.0653 29.1938 24.4466 28.2727 24.4464 27.3122C24.4461 26.3518 24.0644 25.4308 23.3851 24.7519Z" stroke="#6688FF" stroke-width="3" stroke-linecap="round" stroke-linejoin="round"/>
  </g>
  <defs>
    <linearGradient id="paint0_linear_53_97" x1="0" y1="0" x2="48" y2="48" gradientUnits="userSpaceOnUse">
      <stop stop-color="#D9D9D9"/>
      <stop offset="1" stop-color="#D9D9D9" stop-opacity="0.45"/>
    </linearGradient>
  </defs>
</svg>
