<svg width="403" height="600" viewBox="0 0 403 600" fill="none"
  xmlns="http://www.w3.org/2000/svg">
  <path d="M541.219 496.875C505.523 435.164 450.516 390.914 386.32 369.938C418.074 351.034 442.745 322.23 456.544 287.948C470.343 253.667 472.507 215.803 462.704 180.172C452.902 144.542 431.674 113.114 402.281 90.7155C372.888 68.317 336.955 56.1863 300 56.1863C263.045 56.1863 227.112 68.317 197.719 90.7155C168.326 113.114 147.098 144.542 137.295 180.172C127.493 215.803 129.657 253.667 143.456 287.948C157.255 322.23 181.926 351.034 213.68 369.938C149.484 390.891 94.4766 435.141 58.7812 496.875C57.4722 499.009 56.604 501.384 56.2277 503.86C55.8514 506.335 55.9748 508.861 56.5904 511.288C57.2061 513.715 58.3016 515.994 59.8123 517.991C61.323 519.987 63.2184 521.661 65.3865 522.914C67.5547 524.166 69.9517 524.971 72.4361 525.282C74.9206 525.593 77.4421 525.404 79.8521 524.724C82.262 524.045 84.5114 522.89 86.4677 521.327C88.4239 519.764 90.0474 517.825 91.2422 515.625C135.398 439.313 213.445 393.75 300 393.75C386.555 393.75 464.602 439.313 508.758 515.625C509.953 517.825 511.576 519.764 513.532 521.327C515.489 522.89 517.738 524.045 520.148 524.724C522.558 525.404 525.079 525.593 527.564 525.282C530.048 524.971 532.445 524.166 534.613 522.914C536.782 521.661 538.677 519.987 540.188 517.991C541.698 515.994 542.794 513.715 543.41 511.288C544.025 508.861 544.149 506.335 543.772 503.86C543.396 501.384 542.528 499.009 541.219 496.875ZM168.75 225C168.75 199.041 176.448 173.665 190.87 152.081C205.292 130.498 225.79 113.675 249.773 103.741C273.756 93.8068 300.146 91.2077 325.606 96.272C351.066 101.336 374.452 113.837 392.808 132.192C411.163 150.548 423.664 173.934 428.728 199.394C433.792 224.854 431.193 251.244 421.259 275.227C411.325 299.21 394.503 319.708 372.919 334.13C351.335 348.552 325.959 356.25 300 356.25C265.202 356.213 231.839 342.373 207.233 317.767C182.627 293.161 168.787 259.798 168.75 225Z" fill="url(#paint0_linear_1_282)"/>
  <defs>
    <linearGradient id="paint0_linear_1_282" x1="300" y1="56.1863" x2="300" y2="525.428" gradientUnits="userSpaceOnUse">
      <stop stop-color="#6688FF"/>
      <stop offset="1" stop-color="#6688FF" stop-opacity="0"/>
    </linearGradient>
  </defs>
</svg>
